<svg width="67" height="67" viewBox="0 0 67 67" fill="none" xmlns="http://www.w3.org/2000/svg">
<g clip-path="url(#clip0_1_240)">
<path d="M33.5 67C52.0015 67 67 52.0015 67 33.5C67 14.9985 52.0015 0 33.5 0C14.9985 0 0 14.9985 0 33.5C0 52.0015 14.9985 67 33.5 67Z" fill="url(#paint0_linear_1_240)"/>
<path d="M22.6764 35.9488L26.6509 46.9497C26.6509 46.9497 27.1478 47.979 27.6799 47.979C28.212 47.979 36.1261 39.7458 36.1261 39.7458L44.9268 22.7473L22.8182 33.1091L22.6764 35.9488Z" fill="#C8DAEA"/>
<path d="M27.9463 38.7701L27.1833 46.8788C27.1833 46.8788 26.8639 49.3634 29.348 46.8788C31.832 44.3942 34.2096 42.4783 34.2096 42.4783" fill="#A9C6D8"/>
<path d="M22.7482 36.3413L14.5725 33.6775C14.5725 33.6775 13.5954 33.2811 13.91 32.3822C13.9748 32.1968 14.1055 32.0391 14.4963 31.768C16.3078 30.5053 48.0259 19.105 48.0259 19.105C48.0259 19.105 48.9215 18.8032 49.4496 19.0039C49.5803 19.0444 49.6979 19.1188 49.7903 19.2196C49.8828 19.3204 49.9468 19.444 49.9759 19.5776C50.0329 19.8137 50.0568 20.0566 50.0468 20.2993C50.0443 20.5092 50.0189 20.7038 49.9996 21.0089C49.8064 24.1258 44.0254 47.3882 44.0254 47.3882C44.0254 47.3882 43.6795 48.7494 42.4403 48.7961C42.1358 48.8059 41.8324 48.7543 41.5482 48.6444C41.264 48.5345 41.0049 48.3684 40.7863 48.1562C38.3544 46.0644 29.9493 40.4158 28.092 39.1735C28.0501 39.1449 28.0148 39.1077 27.9885 39.0644C27.9622 39.021 27.9455 38.9726 27.9396 38.9222C27.9136 38.7913 28.056 38.6291 28.056 38.6291C28.056 38.6291 42.6916 25.6199 43.081 24.2542C43.1112 24.1484 42.9973 24.0962 42.8443 24.1426C41.8722 24.5002 25.0212 35.1417 23.1614 36.3162C23.0275 36.3567 22.886 36.3653 22.7482 36.3413Z" fill="white"/>
</g>
<defs>
<linearGradient id="paint0_linear_1_240" x1="33.5" y1="67" x2="33.5" y2="0" gradientUnits="userSpaceOnUse">
<stop stop-color="#1D93D2"/>
<stop offset="1" stop-color="#38B0E3"/>
</linearGradient>
<clipPath id="clip0_1_240">
<rect width="67" height="67" fill="white"/>
</clipPath>
</defs>
</svg>
